<svg xmlns="http://www.w3.org/2000/svg" version="1.1" xmlns:xlink="http://www.w3.org/1999/xlink" xmlns:svgjs="http://svgjs.dev/svgjs" width="3840" height="2160" preserveAspectRatio="none" viewBox="0 0 3840 2160"><g mask="url(&quot;#SvgjsMask1460&quot;)" fill="none"><rect width="3840" height="2160" x="0" y="0" fill="rgba(0, 73, 73, 1)"></rect><path d="M0 0L304.08 0L0 455.87z" fill="rgba(255, 255, 255, .1)"></path><path d="M0 455.87L304.08 0L1541.1899999999998 0L0 786.81z" fill="rgba(255, 255, 255, .075)"></path><path d="M0 786.81L1541.1899999999998 0L2723.83 0L0 1397.06z" fill="rgba(255, 255, 255, .05)"></path><path d="M0 1397.06L2723.83 0L3404.31 0L0 1450.74z" fill="rgba(255, 255, 255, .025)"></path><path d="M3840 2160L2132.12 2160L3840 1837.58z" fill="rgba(0, 0, 0, .1)"></path><path d="M3840 1837.58L2132.12 2160L1998.1299999999999 2160L3840 999.6299999999999z" fill="rgba(0, 0, 0, .075)"></path><path d="M3840 999.6299999999999L1998.1299999999999 2160L1311.6399999999999 2160L3840 918.4099999999999z" fill="rgba(0, 0, 0, .05)"></path><path d="M3840 918.4099999999999L1311.6399999999999 2160L888.4999999999999 2160L3840 590.8999999999999z" fill="rgba(0, 0, 0, .025)"></path></g><defs><mask id="SvgjsMask1460"><rect width="3840" height="2160" fill="#ffffff"></rect></mask></defs></svg>