<svg xmlns="http://www.w3.org/2000/svg" version="1.1" xmlns:xlink="http://www.w3.org/1999/xlink" xmlns:svgjs="http://svgjs.dev/svgjs" width="1440" height="900" preserveAspectRatio="none" viewBox="0 0 1440 900"><g mask="url(&quot;#SvgjsMask1488&quot;)" fill="none"><rect width="1440" height="900" x="0" y="0" fill="url(&quot;#SvgjsLinearGradient1489&quot;)"></rect><path d="M0 0L203.6 0L0 390.76z" fill="rgba(255, 255, 255, .1)"></path><path d="M0 390.76L203.6 0L611.7 0L0 634.76z" fill="rgba(255, 255, 255, .075)"></path><path d="M0 634.76L611.7 0L1110.97 0L0 639.63z" fill="rgba(255, 255, 255, .05)"></path><path d="M0 639.63L1110.97 0L1237.27 0L0 684.3z" fill="rgba(255, 255, 255, .025)"></path><path d="M1440 900L858.42 900L1440 837.73z" fill="rgba(0, 0, 0, .1)"></path><path d="M1440 837.73L858.42 900L576.73 900L1440 392.76z" fill="rgba(0, 0, 0, .075)"></path><path d="M1440 392.76L576.73 900L289.34000000000003 900L1440 236.34z" fill="rgba(0, 0, 0, .05)"></path><path d="M1440 236.34000000000003L289.34000000000015 900L285.45000000000016 900L1440 124.26000000000003z" fill="rgba(0, 0, 0, .025)"></path></g><defs><mask id="SvgjsMask1488"><rect width="1440" height="900" fill="#ffffff"></rect></mask><linearGradient x1="9.37%" y1="-15%" x2="90.63%" y2="115%" gradientUnits="userSpaceOnUse" id="SvgjsLinearGradient1489"><stop stop-color="rgba(160, 0, 92, 1)" offset="0"></stop><stop stop-color="rgba(23, 12, 64, 1)" offset="1"></stop></linearGradient></defs></svg>