<svg xmlns="http://www.w3.org/2000/svg" version="1.1" xmlns:xlink="http://www.w3.org/1999/xlink" xmlns:svgjs="http://svgjs.dev/svgjs" width="1440" height="560" preserveAspectRatio="none" viewBox="0 0 1440 560"><g mask="url(&quot;#SvgjsMask1031&quot;)" fill="none"><rect width="1440" height="560" x="0" y="0" fill="rgba(33, 33, 33, 1)"></rect><path d="M513 343L185 15" stroke-width="10" stroke="url(&quot;#SvgjsLinearGradient1032&quot;)" stroke-linecap="round" class="BottomRight"></path><path d="M830 438L1062 670" stroke-width="8" stroke="url(&quot;#SvgjsLinearGradient1033&quot;)" stroke-linecap="round" class="TopLeft"></path><path d="M382 444L794 856" stroke-width="8" stroke="url(&quot;#SvgjsLinearGradient1034&quot;)" stroke-linecap="round" class="BottomRight"></path><path d="M116 532L-130 286" stroke-width="6" stroke="url(&quot;#SvgjsLinearGradient1035&quot;)" stroke-linecap="round" class="TopLeft"></path><path d="M741 229L583 71" stroke-width="8" stroke="url(&quot;#SvgjsLinearGradient1036&quot;)" stroke-linecap="round" class="TopLeft"></path><path d="M173 38L419 284" stroke-width="6" stroke="url(&quot;#SvgjsLinearGradient1036&quot;)" stroke-linecap="round" class="TopLeft"></path><path d="M1178 245L1466 533" stroke-width="8" stroke="url(&quot;#SvgjsLinearGradient1036&quot;)" stroke-linecap="round" class="TopLeft"></path><path d="M1077 517L751 191" stroke-width="6" stroke="url(&quot;#SvgjsLinearGradient1037&quot;)" stroke-linecap="round" class="BottomRight"></path><path d="M663 107L451 -105" stroke-width="8" stroke="url(&quot;#SvgjsLinearGradient1036&quot;)" stroke-linecap="round" class="TopLeft"></path><path d="M1324 84L1095 -145" stroke-width="8" stroke="url(&quot;#SvgjsLinearGradient1034&quot;)" stroke-linecap="round" class="BottomRight"></path><path d="M137 338L288 489" stroke-width="10" stroke="url(&quot;#SvgjsLinearGradient1037&quot;)" stroke-linecap="round" class="BottomRight"></path><path d="M1288 487L902 101" stroke-width="8" stroke="url(&quot;#SvgjsLinearGradient1033&quot;)" stroke-linecap="round" class="TopLeft"></path><path d="M1405 384L1819 798" stroke-width="6" stroke="url(&quot;#SvgjsLinearGradient1032&quot;)" stroke-linecap="round" class="BottomRight"></path><path d="M394 364L93 63" stroke-width="10" stroke="url(&quot;#SvgjsLinearGradient1032&quot;)" stroke-linecap="round" class="BottomRight"></path><path d="M526 199L141 -186" stroke-width="8" stroke="url(&quot;#SvgjsLinearGradient1037&quot;)" stroke-linecap="round" class="BottomRight"></path><path d="M1257 493L1096 332" stroke-width="10" stroke="url(&quot;#SvgjsLinearGradient1037&quot;)" stroke-linecap="round" class="BottomRight"></path><path d="M745 399L565 219" stroke-width="6" stroke="url(&quot;#SvgjsLinearGradient1033&quot;)" stroke-linecap="round" class="TopLeft"></path><path d="M1082 127L936 -19" stroke-width="6" stroke="url(&quot;#SvgjsLinearGradient1033&quot;)" stroke-linecap="round" class="TopLeft"></path><path d="M1121 133L836 -152" stroke-width="10" stroke="url(&quot;#SvgjsLinearGradient1034&quot;)" stroke-linecap="round" class="BottomRight"></path><path d="M226 242L603 619" stroke-width="10" stroke="url(&quot;#SvgjsLinearGradient1034&quot;)" stroke-linecap="round" class="BottomRight"></path><path d="M806 410L520 124" stroke-width="10" stroke="url(&quot;#SvgjsLinearGradient1035&quot;)" stroke-linecap="round" class="TopLeft"></path><path d="M600 297L388 85" stroke-width="10" stroke="url(&quot;#SvgjsLinearGradient1037&quot;)" stroke-linecap="round" class="BottomRight"></path><path d="M1425 59L1577 211" stroke-width="6" stroke="url(&quot;#SvgjsLinearGradient1032&quot;)" stroke-linecap="round" class="BottomRight"></path><path d="M879 407L1169 697" stroke-width="6" stroke="url(&quot;#SvgjsLinearGradient1034&quot;)" stroke-linecap="round" class="BottomRight"></path><path d="M153 100L-152 -205" stroke-width="10" stroke="url(&quot;#SvgjsLinearGradient1033&quot;)" stroke-linecap="round" class="TopLeft"></path><path d="M658 274L841 457" stroke-width="10" stroke="url(&quot;#SvgjsLinearGradient1036&quot;)" stroke-linecap="round" class="TopLeft"></path><path d="M929 47L1189 307" stroke-width="10" stroke="url(&quot;#SvgjsLinearGradient1034&quot;)" stroke-linecap="round" class="BottomRight"></path><path d="M793 100L1208 515" stroke-width="6" stroke="url(&quot;#SvgjsLinearGradient1034&quot;)" stroke-linecap="round" class="BottomRight"></path><path d="M645 84L233 -328" stroke-width="10" stroke="url(&quot;#SvgjsLinearGradient1035&quot;)" stroke-linecap="round" class="TopLeft"></path><path d="M452 161L664 373" stroke-width="10" stroke="url(&quot;#SvgjsLinearGradient1033&quot;)" stroke-linecap="round" class="TopLeft"></path><path d="M758 507L1165 914" stroke-width="6" stroke="url(&quot;#SvgjsLinearGradient1036&quot;)" stroke-linecap="round" class="TopLeft"></path><path d="M275 18L-137 -394" stroke-width="8" stroke="url(&quot;#SvgjsLinearGradient1035&quot;)" stroke-linecap="round" class="TopLeft"></path><path d="M345 28L15 -302" stroke-width="8" stroke="url(&quot;#SvgjsLinearGradient1037&quot;)" stroke-linecap="round" class="BottomRight"></path><path d="M162 22L324 184" stroke-width="8" stroke="url(&quot;#SvgjsLinearGradient1037&quot;)" stroke-linecap="round" class="BottomRight"></path><path d="M874 82L586 -206" stroke-width="10" stroke="url(&quot;#SvgjsLinearGradient1034&quot;)" stroke-linecap="round" class="BottomRight"></path><path d="M280 294L-21 -7" stroke-width="6" stroke="url(&quot;#SvgjsLinearGradient1036&quot;)" stroke-linecap="round" class="TopLeft"></path><path d="M1313 112L1076 -125" stroke-width="8" stroke="url(&quot;#SvgjsLinearGradient1036&quot;)" stroke-linecap="round" class="TopLeft"></path><path d="M1105 278L1433 606" stroke-width="10" stroke="url(&quot;#SvgjsLinearGradient1034&quot;)" stroke-linecap="round" class="BottomRight"></path><path d="M1308 518L1509 719" stroke-width="8" stroke="url(&quot;#SvgjsLinearGradient1036&quot;)" stroke-linecap="round" class="TopLeft"></path></g><defs><mask id="SvgjsMask1031"><rect width="1440" height="560" fill="#ffffff"></rect></mask><linearGradient x1="0%" y1="0%" x2="100%" y2="100%" id="SvgjsLinearGradient1032"><stop stop-color="rgba(97, 164, 199, 0)" offset="0"></stop><stop stop-color="rgba(97, 164, 199, 1)" offset="1"></stop></linearGradient><linearGradient x1="100%" y1="100%" x2="0%" y2="0%" id="SvgjsLinearGradient1033"><stop stop-color="rgba(97, 105, 199, 0)" offset="0"></stop><stop stop-color="rgba(97, 105, 199, 1)" offset="1"></stop></linearGradient><linearGradient x1="0%" y1="0%" x2="100%" y2="100%" id="SvgjsLinearGradient1034"><stop stop-color="rgba(199, 97, 196, 0)" offset="0"></stop><stop stop-color="rgba(199, 97, 196, 1)" offset="1"></stop></linearGradient><linearGradient x1="100%" y1="100%" x2="0%" y2="0%" id="SvgjsLinearGradient1035"><stop stop-color="rgba(199, 97, 196, 0)" offset="0"></stop><stop stop-color="rgba(199, 97, 196, 1)" offset="1"></stop></linearGradient><linearGradient x1="100%" y1="100%" x2="0%" y2="0%" id="SvgjsLinearGradient1036"><stop stop-color="rgba(97, 164, 199, 0)" offset="0"></stop><stop stop-color="rgba(97, 164, 199, 1)" offset="1"></stop></linearGradient><linearGradient x1="0%" y1="0%" x2="100%" y2="100%" id="SvgjsLinearGradient1037"><stop stop-color="rgba(97, 105, 199, 0)" offset="0"></stop><stop stop-color="rgba(97, 105, 199, 1)" offset="1"></stop></linearGradient></defs></svg>