<svg xmlns="http://www.w3.org/2000/svg" version="1.1" xmlns:xlink="http://www.w3.org/1999/xlink" xmlns:svgjs="http://svgjs.dev/svgjs" width="3840" height="2160" preserveAspectRatio="none" viewBox="0 0 3840 2160"><g mask="url(&quot;#SvgjsMask1004&quot;)" fill="none"><rect width="3840" height="2160" x="0" y="0" fill="rgba(33, 33, 33, 1)"></rect><path d="M3840 0L2392.91 0L3840 694.06z" fill="rgba(255, 255, 255, .1)"></path><path d="M2392.91 0L3840 694.06L3840 794.76L1933.87 0z" fill="rgba(255, 255, 255, .075)"></path><path d="M1933.8700000000001 0L3840 794.76L3840 1584.1399999999999L1208.44 0z" fill="rgba(255, 255, 255, .05)"></path><path d="M1208.44 0L3840 1584.1399999999999L3840 1883.09L588.99 0z" fill="rgba(255, 255, 255, .025)"></path><path d="M0 2160L1675.44 2160L0 1083.91z" fill="rgba(0, 0, 0, .1)"></path><path d="M0 1083.91L1675.44 2160L2590.6400000000003 2160L0 809.4100000000001z" fill="rgba(0, 0, 0, .075)"></path><path d="M0 809.4100000000001L2590.6400000000003 2160L2620.59 2160L0 408.0100000000001z" fill="rgba(0, 0, 0, .05)"></path><path d="M0 408.0100000000002L2620.59 2160L3471.4 2160L0 322.87000000000023z" fill="rgba(0, 0, 0, .025)"></path></g><defs><mask id="SvgjsMask1004"><rect width="3840" height="2160" fill="#ffffff"></rect></mask></defs></svg>