<svg xmlns="http://www.w3.org/2000/svg" version="1.1" xmlns:xlink="http://www.w3.org/1999/xlink" xmlns:svgjs="http://svgjs.dev/svgjs" width="3840" height="2160" preserveAspectRatio="none" viewBox="0 0 3840 2160"><g mask="url(&quot;#SvgjsMask1025&quot;)" fill="none"><rect width="3840" height="2160" x="0" y="0" fill="rgba(238, 238, 238, 1)"></rect><path d="M3840 0L3683.66 0L3840 261.57z" fill="rgba(255, 255, 255, .1)"></path><path d="M3683.66 0L3840 261.57L3840 480.03999999999996L1867.9499999999998 0z" fill="rgba(255, 255, 255, .075)"></path><path d="M1867.95 0L3840 480.03999999999996L3840 569.91L812.3 0z" fill="rgba(255, 255, 255, .05)"></path><path d="M812.3000000000002 0L3840 569.91L3840 752.68L589.8100000000002 0z" fill="rgba(255, 255, 255, .025)"></path><path d="M0 2160L1079.85 2160L0 1799.66z" fill="rgba(0, 0, 0, .1)"></path><path d="M0 1799.66L1079.85 2160L2135.8599999999997 2160L0 1078.3000000000002z" fill="rgba(0, 0, 0, .075)"></path><path d="M0 1078.3L2135.8599999999997 2160L2317.9799999999996 2160L0 591.49z" fill="rgba(0, 0, 0, .05)"></path><path d="M0 591.49L2317.9799999999996 2160L3076.5299999999997 2160L0 500.55z" fill="rgba(0, 0, 0, .025)"></path></g><defs><mask id="SvgjsMask1025"><rect width="3840" height="2160" fill="#ffffff"></rect></mask></defs></svg>