<svg xmlns="http://www.w3.org/2000/svg" version="1.1" xmlns:xlink="http://www.w3.org/1999/xlink" xmlns:svgjs="http://svgjs.dev/svgjs" width="1440" height="560" preserveAspectRatio="none" viewBox="0 0 1440 560"><g mask="url(&quot;#SvgjsMask1038&quot;)" fill="none"><rect width="1440" height="560" x="0" y="0" fill="rgba(33, 33, 33, 1)"></rect><path d="M664 458L440 234" stroke-width="10" stroke="url(&quot;#SvgjsLinearGradient1039&quot;)" stroke-linecap="round" class="TopLeft"></path><path d="M737 290L889 442" stroke-width="6" stroke="url(&quot;#SvgjsLinearGradient1040&quot;)" stroke-linecap="round" class="BottomRight"></path><path d="M621 91L247 -283" stroke-width="10" stroke="url(&quot;#SvgjsLinearGradient1041&quot;)" stroke-linecap="round" class="BottomRight"></path><path d="M338 530L620 812" stroke-width="8" stroke="url(&quot;#SvgjsLinearGradient1042&quot;)" stroke-linecap="round" class="TopLeft"></path><path d="M1337 263L1596 522" stroke-width="10" stroke="url(&quot;#SvgjsLinearGradient1039&quot;)" stroke-linecap="round" class="TopLeft"></path><path d="M515 369L172 26" stroke-width="10" stroke="url(&quot;#SvgjsLinearGradient1042&quot;)" stroke-linecap="round" class="TopLeft"></path><path d="M413 254L224 65" stroke-width="6" stroke="url(&quot;#SvgjsLinearGradient1041&quot;)" stroke-linecap="round" class="BottomRight"></path><path d="M916 99L1120 303" stroke-width="6" stroke="url(&quot;#SvgjsLinearGradient1042&quot;)" stroke-linecap="round" class="TopLeft"></path><path d="M212 278L484 550" stroke-width="10" stroke="url(&quot;#SvgjsLinearGradient1042&quot;)" stroke-linecap="round" class="TopLeft"></path><path d="M825 27L1157 359" stroke-width="10" stroke="url(&quot;#SvgjsLinearGradient1041&quot;)" stroke-linecap="round" class="BottomRight"></path><path d="M414 538L100 224" stroke-width="8" stroke="url(&quot;#SvgjsLinearGradient1039&quot;)" stroke-linecap="round" class="TopLeft"></path><path d="M1328 477L1485 634" stroke-width="10" stroke="url(&quot;#SvgjsLinearGradient1042&quot;)" stroke-linecap="round" class="TopLeft"></path><path d="M1293 548L1037 292" stroke-width="8" stroke="url(&quot;#SvgjsLinearGradient1041&quot;)" stroke-linecap="round" class="BottomRight"></path><path d="M829 506L550 227" stroke-width="10" stroke="url(&quot;#SvgjsLinearGradient1041&quot;)" stroke-linecap="round" class="BottomRight"></path><path d="M1375 395L1199 219" stroke-width="10" stroke="url(&quot;#SvgjsLinearGradient1041&quot;)" stroke-linecap="round" class="BottomRight"></path><path d="M921 292L562 -67" stroke-width="10" stroke="url(&quot;#SvgjsLinearGradient1039&quot;)" stroke-linecap="round" class="TopLeft"></path><path d="M1150 271L1511 632" stroke-width="10" stroke="url(&quot;#SvgjsLinearGradient1040&quot;)" stroke-linecap="round" class="BottomRight"></path><path d="M120 191L400 471" stroke-width="8" stroke="url(&quot;#SvgjsLinearGradient1042&quot;)" stroke-linecap="round" class="TopLeft"></path><path d="M421 500L106 185" stroke-width="8" stroke="url(&quot;#SvgjsLinearGradient1041&quot;)" stroke-linecap="round" class="BottomRight"></path><path d="M862 501L1024 663" stroke-width="10" stroke="url(&quot;#SvgjsLinearGradient1039&quot;)" stroke-linecap="round" class="TopLeft"></path><path d="M243 280L391 428" stroke-width="10" stroke="url(&quot;#SvgjsLinearGradient1041&quot;)" stroke-linecap="round" class="BottomRight"></path><path d="M82 99L248 265" stroke-width="10" stroke="url(&quot;#SvgjsLinearGradient1042&quot;)" stroke-linecap="round" class="TopLeft"></path><path d="M184 33L-164 -315" stroke-width="8" stroke="url(&quot;#SvgjsLinearGradient1040&quot;)" stroke-linecap="round" class="BottomRight"></path><path d="M370 471L562 663" stroke-width="10" stroke="url(&quot;#SvgjsLinearGradient1039&quot;)" stroke-linecap="round" class="TopLeft"></path><path d="M546 430L294 178" stroke-width="8" stroke="url(&quot;#SvgjsLinearGradient1040&quot;)" stroke-linecap="round" class="BottomRight"></path><path d="M844 183L1061 400" stroke-width="10" stroke="url(&quot;#SvgjsLinearGradient1042&quot;)" stroke-linecap="round" class="TopLeft"></path><path d="M1095 542L939 386" stroke-width="10" stroke="url(&quot;#SvgjsLinearGradient1042&quot;)" stroke-linecap="round" class="TopLeft"></path><path d="M797 29L1133 365" stroke-width="6" stroke="url(&quot;#SvgjsLinearGradient1040&quot;)" stroke-linecap="round" class="BottomRight"></path><path d="M997 431L1394 828" stroke-width="10" stroke="url(&quot;#SvgjsLinearGradient1041&quot;)" stroke-linecap="round" class="BottomRight"></path><path d="M567 552L377 362" stroke-width="8" stroke="url(&quot;#SvgjsLinearGradient1042&quot;)" stroke-linecap="round" class="TopLeft"></path><path d="M208 432L602 826" stroke-width="8" stroke="url(&quot;#SvgjsLinearGradient1042&quot;)" stroke-linecap="round" class="TopLeft"></path><path d="M1300 148L1069 -83" stroke-width="6" stroke="url(&quot;#SvgjsLinearGradient1039&quot;)" stroke-linecap="round" class="TopLeft"></path><path d="M1312 3L1600 291" stroke-width="8" stroke="url(&quot;#SvgjsLinearGradient1041&quot;)" stroke-linecap="round" class="BottomRight"></path><path d="M1057 66L706 -285" stroke-width="8" stroke="url(&quot;#SvgjsLinearGradient1041&quot;)" stroke-linecap="round" class="BottomRight"></path><path d="M931 553L636 258" stroke-width="10" stroke="url(&quot;#SvgjsLinearGradient1040&quot;)" stroke-linecap="round" class="BottomRight"></path><path d="M1081 488L1373 780" stroke-width="6" stroke="url(&quot;#SvgjsLinearGradient1042&quot;)" stroke-linecap="round" class="TopLeft"></path><path d="M1209 23L1551 365" stroke-width="6" stroke="url(&quot;#SvgjsLinearGradient1041&quot;)" stroke-linecap="round" class="BottomRight"></path><path d="M176 356L-41 139" stroke-width="8" stroke="url(&quot;#SvgjsLinearGradient1042&quot;)" stroke-linecap="round" class="TopLeft"></path><path d="M276 158L457 339" stroke-width="10" stroke="url(&quot;#SvgjsLinearGradient1041&quot;)" stroke-linecap="round" class="BottomRight"></path></g><defs><mask id="SvgjsMask1038"><rect width="1440" height="560" fill="#ffffff"></rect></mask><linearGradient x1="100%" y1="100%" x2="0%" y2="0%" id="SvgjsLinearGradient1039"><stop stop-color="rgba(97, 105, 199, 0)" offset="0"></stop><stop stop-color="rgba(97, 105, 199, 1)" offset="1"></stop></linearGradient><linearGradient x1="0%" y1="0%" x2="100%" y2="100%" id="SvgjsLinearGradient1040"><stop stop-color="rgba(97, 105, 199, 0)" offset="0"></stop><stop stop-color="rgba(97, 105, 199, 1)" offset="1"></stop></linearGradient><linearGradient x1="0%" y1="0%" x2="100%" y2="100%" id="SvgjsLinearGradient1041"><stop stop-color="rgba(97, 164, 199, 0)" offset="0"></stop><stop stop-color="rgba(97, 164, 199, 1)" offset="1"></stop></linearGradient><linearGradient x1="100%" y1="100%" x2="0%" y2="0%" id="SvgjsLinearGradient1042"><stop stop-color="rgba(97, 164, 199, 0)" offset="0"></stop><stop stop-color="rgba(97, 164, 199, 1)" offset="1"></stop></linearGradient></defs></svg>