<?xml version="1.0" encoding="UTF-8" standalone="no"?>
<svg
   enable-background="new 0 0 64 64"
   viewBox="0 0 64 64"
   version="1.1"
   id="svg4"
   sodipodi:docname="favicon.svg"
   inkscape:version="1.3.2 (091e20ef0f, 2023-11-25)"
   inkscape:export-filename="../../../../../../Downloads/favicon-2.svg"
   inkscape:export-xdpi="96"
   inkscape:export-ydpi="96"
   xmlns:inkscape="http://www.inkscape.org/namespaces/inkscape"
   xmlns:sodipodi="http://sodipodi.sourceforge.net/DTD/sodipodi-0.dtd"
   xmlns="http://www.w3.org/2000/svg"
   xmlns:svg="http://www.w3.org/2000/svg">
  <defs
     id="defs4" />
  <sodipodi:namedview
     id="namedview4"
     pagecolor="#ffffff"
     bordercolor="#000000"
     borderopacity="0.25"
     inkscape:showpageshadow="2"
     inkscape:pageopacity="0.0"
     inkscape:pagecheckerboard="false"
     inkscape:deskcolor="#d1d1d1"
     inkscape:zoom="9.0377085"
     inkscape:cx="31.423895"
     inkscape:cy="35.739148"
     inkscape:window-width="1895"
     inkscape:window-height="1015"
     inkscape:window-x="12"
     inkscape:window-y="12"
     inkscape:window-maximized="1"
     inkscape:current-layer="svg4" />
  <circle
     cx="32"
     cy="32"
     fill="#77b3d4"
     r="32"
     id="circle1"
     style="fill:#870041;fill-opacity:1;display:inline"
     inkscape:export-filename="favicon.svg"
     inkscape:export-xdpi="96"
     inkscape:export-ydpi="96" />
  <path
     d="m52 32c0-9.9-9-18-20-18s-20 8.1-20 18c0 9.6 8.3 17.4 18.8 17.9.7 3.7 1.2 6.1 1.2 6.1s5-3 9.6-8.2c6.2-3.1 10.4-9 10.4-15.8z"
     fill="#231f20"
     opacity=".2"
     id="path1" />
  <path
     d="m49 28.8c0 15-17 25.2-17 25.2s-9.4-42 0-42 17 7.5 17 16.8z"
     fill="#fff"
     id="path2" />
  <ellipse
     cx="32"
     cy="30"
     fill="#fff"
     rx="20"
     ry="18"
     id="ellipse2" />
  <g
     id="g8"
     transform="matrix(2.2921753,-1.0446044,1.0446044,2.2921753,-70.482518,-12.495406)"
     inkscape:label="Mollyfish"
     style="fill:#870041;fill-opacity:1">
    <path
       style="fill:#870041;fill-opacity:1;stroke-width:0.264583"
       d="m 36.623819,29.244633 c 0,0 -1.280552,-0.112048 -2.032879,0.768332 -0.752324,0.88038 -0.656283,1.088469 -0.656283,1.088469 0,0 0.848368,0.640276 0.608264,1.55267 -0.240104,0.912395 -0.192082,0.928402 -0.528227,1.136492 -0.336145,0.208089 -0.432189,0.09604 -0.496216,0.256111 -0.06403,0.160068 0.624269,0.912394 0.960414,1.18451 0.336145,0.272119 1.024443,0.640276 1.168506,0.73632 0.144063,0.09604 -0.448194,-0.73632 -0.320138,-1.152499 0.128056,-0.416179 0.592257,-0.976421 0.848365,-2.096904 0.256112,-1.120484 -0.272116,-2.208956 -0.272116,-2.208956 0,0 -0.128055,-0.400172 0.01601,-0.656284 0.14406,-0.256111 0.704302,-0.608261 0.704302,-0.608261 z"
       id="path1-3"
       sodipodi:insensitive="true" />
    <path
       style="fill:#870041;fill-opacity:1;stroke-width:0.264583"
       d="m 28.012099,30.86133 c 0,0 0.67229,-0.09604 1.488643,0.160071 0.816354,0.256108 1.712741,0.624268 2.385031,0.624268 0.672291,0 1.424615,-0.04802 1.568678,-0.176075 0.144063,-0.128055 0.496213,0.448194 0.560242,0.976421 0.06403,0.528228 -0.112049,0.88038 -0.400175,1.024443 -0.288123,0.14406 -0.960413,-0.03202 -1.360585,-0.03202 -0.400174,0 -1.24854,-0.09604 -1.616699,0.03202 -0.36816,0.128056 -1.056458,0.320138 -1.392603,0.576249 -0.336145,0.256109 -0.576249,0.384165 -0.576249,0.384165 0,0 -0.06403,-0.320138 -0.08003,-0.496213 -0.01601,-0.176078 -2.06489,-1.104479 -2.06489,-1.104479 0,0 0.128053,-0.272116 0,-0.272116 -0.128057,0 -0.464202,-0.09604 -0.624271,0.06403 -0.160069,0.16007 -0.464201,1.024443 -0.704304,1.088472 -0.240104,0.06403 -0.896388,0.06403 -1.056457,0.01601 -0.160069,-0.04802 -0.448193,-0.496212 -0.656283,-0.67229 -0.20809,-0.176075 -0.720311,-0.35215 -0.736318,-0.544235 -0.01601,-0.192082 0.688297,-0.30413 0.688297,-0.30413 0,0 0.304131,0.736317 0.800346,0.688297 0.496214,-0.04802 0.67229,-0.272118 0.656283,-0.640275 -0.01601,-0.36816 -0.352152,-0.52823 -0.352152,-0.52823 0,0 0.928401,-0.336146 1.328574,-0.416179 0.400173,-0.08003 1.072464,-0.304131 1.360587,-0.320138 0.288126,-0.01601 0.784339,-0.128056 0.784339,-0.128056 z"
       id="path2-6" />
    <ellipse
       style="fill:#870041;fill-opacity:1;stroke-width:0.264583"
       id="path3"
       cx="24.193504"
       cy="32.195747"
       rx="0.25466844"
       ry="0.26598704"
       sodipodi:insensitive="true" />
    <path
       style="fill:#870041;fill-opacity:1;stroke-width:0.264583"
       d="m 29.982964,30.684718 c 0,0 0.656479,0.32824 0.769665,0.316921 0.113186,-0.01132 0.679117,-0.215053 0.713073,-0.339558 0.03395,-0.124505 -0.294285,-0.588569 -0.64516,-0.758347 -0.350877,-0.169777 -1.018675,-0.384831 -1.256366,-0.294282 -0.237691,0.09055 -0.452744,0.690433 -0.430106,0.803619 0.02265,0.113186 0.848894,0.271647 0.848894,0.271647 z"
       id="path4"
       sodipodi:insensitive="true" />
    <path
       style="fill:#870041;fill-opacity:1;stroke-width:0.264583"
       d="m 25.936566,33.418158 -0.418788,0.514998 c 0,0 0.503678,0.328239 0.639501,0.447085 0.135823,0.118843 0.747028,0.362193 0.922465,0.373512 0.17544,0.01132 -0.39615,-0.282964 -0.57159,-0.458404 -0.175437,-0.175437 -0.537632,-0.582906 -0.571588,-0.877191 z"
       id="path5"
       sodipodi:insensitive="true" />
    <path
       style="fill:#870041;fill-opacity:1;stroke-width:0.264583"
       d="m 26.403405,33.322395 c 0,0 0.204087,0.484208 0.71631,0.784338 0.51222,0.300128 0.816353,0.560242 0.816353,0.560242 l 0.300127,-0.512222 c 0,0 -0.568245,-0.152067 -0.924398,-0.380164 -0.356153,-0.228098 -0.896387,-0.572247 -0.896387,-0.572247 z"
       id="path6"
       sodipodi:insensitive="true" />
    <path
       style="fill:#870041;fill-opacity:1;stroke-width:0.264583"
       d="m 29.428712,34.430872 c 0,0 1.072462,-0.480208 1.208522,-0.400172 0.136059,0.08003 0.172074,0.72031 0.008,0.712306 -0.16407,-0.008 -1.116483,-0.204086 -1.216525,-0.312134 z"
       id="path7"
       sodipodi:insensitive="true" />
  </g>
</svg>
